<?xml version="1.0" standalone="no"?>
<!DOCTYPE svg PUBLIC "-//W3C//DTD SVG 20010904//EN"
 "http://www.w3.org/TR/2001/REC-SVG-20010904/DTD/svg10.dtd">
<svg version="1.0" xmlns="http://www.w3.org/2000/svg"
 width="1016.000000pt" height="1016.000000pt" viewBox="0 0 1016.000000 1016.000000"
 preserveAspectRatio="xMidYMid meet">
<metadata>
Created by potrace 1.14, written by Peter Selinger 2001-2017
</metadata>
<g transform="translate(0.000000,1016.000000) scale(0.100000,-0.100000)"
fill="#000000" stroke="none">
<path d="M2422 7703 c2 -10 -7 -30 -67 -158 -26 -55 -58 -125 -72 -155 -27
-58 -53 -115 -127 -274 -25 -54 -46 -100 -46 -102 0 -2 -21 -48 -46 -101 -56
-118 -101 -214 -144 -308 -18 -38 -46 -99 -62 -135 -17 -36 -41 -90 -55 -120
-14 -30 -38 -82 -53 -115 -34 -73 -84 -181 -117 -255 -24 -52 -61 -133 -123
-265 -16 -33 -38 -82 -50 -110 -23 -52 -86 -188 -195 -420 -18 -38 -45 -97
-60 -130 -74 -161 -136 -297 -166 -360 -18 -38 -34 -72 -34 -75 0 -3 -16 -36
-34 -75 -47 -99 -84 -179 -86 -185 0 -3 -15 -35 -33 -72 -18 -37 -32 -72 -32
-78 0 -5 -4 -10 -10 -10 -5 0 -9 -3 -8 -7 2 -9 -7 -29 -62 -148 -23 -49 -52
-112 -65 -140 -13 -27 -38 -81 -56 -120 -18 -38 -33 -72 -34 -75 0 -3 -14 -32
-29 -65 -16 -33 -41 -87 -56 -120 -15 -33 -41 -89 -58 -125 -16 -36 -43 -94
-60 -130 -16 -36 -45 -99 -65 -140 -19 -41 -46 -101 -61 -132 -14 -32 -41 -91
-60 -130 -29 -63 -96 -207 -169 -368 -12 -25 -23 -48 -25 -52 -2 -4 1092 -8
2432 -8 l2435 0 -18 42 c-10 24 -35 79 -56 123 -20 44 -50 109 -67 145 -38 83
-67 147 -107 232 -17 37 -32 71 -32 75 0 5 -6 17 -13 28 -7 11 -32 63 -56 115
-24 52 -65 142 -92 199 -26 57 -48 104 -48 106 0 2 -22 49 -49 106 -26 57 -59
127 -71 154 -12 28 -47 101 -76 164 -30 62 -54 115 -54 117 0 1 -25 55 -55
119 -30 65 -55 118 -55 120 0 1 -23 52 -51 111 -55 117 -72 155 -73 166 -1 4
-7 13 -13 20 -7 6 -13 15 -13 20 0 4 -14 38 -31 75 -43 92 -130 283 -168 368
-18 39 -38 81 -45 95 -8 14 -45 95 -84 180 -38 85 -81 180 -95 210 -14 30 -25
58 -24 61 1 4 -5 15 -14 25 -9 11 -23 37 -32 59 -14 36 -54 124 -137 300 -15
33 -41 89 -58 125 -16 36 -39 85 -50 110 -11 25 -39 86 -62 135 -23 50 -53
115 -67 145 -14 30 -38 82 -53 115 -16 33 -43 92 -60 130 -18 39 -45 98 -61
133 -16 34 -42 90 -58 125 -16 34 -84 181 -151 327 -67 146 -132 287 -146 314
-13 28 -24 56 -24 63 0 7 -7 13 -15 13 -8 0 -14 -3 -13 -7z m58 -733 c18 -41
52 -115 75 -165 23 -49 52 -112 65 -140 13 -27 42 -92 66 -143 24 -52 44 -95
44 -97 0 -1 27 -61 60 -131 34 -71 66 -140 72 -154 5 -14 14 -33 19 -42 5 -10
61 -131 125 -270 64 -139 130 -282 147 -318 17 -36 31 -67 32 -70 0 -3 15 -34
32 -70 17 -36 35 -77 38 -92 4 -16 10 -28 14 -28 3 0 13 -15 20 -32 24 -54 66
-149 98 -218 17 -36 41 -87 53 -115 13 -27 38 -84 57 -125 20 -41 47 -100 61
-130 14 -30 41 -89 60 -130 19 -41 47 -102 62 -135 15 -33 46 -99 69 -148 22
-48 41 -89 41 -91 0 -2 25 -57 56 -122 30 -66 62 -133 70 -151 8 -17 33 -71
55 -120 23 -48 52 -113 66 -143 14 -30 38 -82 53 -115 15 -33 47 -100 70 -150
40 -86 62 -134 65 -145 1 -3 15 -34 32 -70 27 -56 183 -393 183 -395 0 0 -899
0 -1997 0 -1392 0 -1997 3 -2000 11 -2 5 31 84 73 175 95 205 123 265 209 454
15 33 43 94 63 135 19 41 45 98 57 125 13 28 38 82 56 120 18 39 33 72 34 75
0 3 9 20 18 38 10 17 14 32 10 32 -5 0 -3 4 2 8 6 4 19 27 30 52 11 25 23 48
28 51 5 3 8 9 8 13 -1 13 13 46 109 251 21 44 47 100 58 125 21 47 77 167 120
260 14 30 26 57 27 60 0 3 10 23 22 45 11 22 21 42 21 45 0 3 17 43 40 90 22
47 63 137 92 200 29 63 70 153 92 200 22 47 74 159 115 250 42 91 100 216 129
279 30 62 54 114 54 116 0 3 15 36 112 245 16 36 38 81 49 101 10 20 16 38 14
41 -3 3 1 11 10 18 8 7 15 17 15 22 0 10 21 58 85 193 23 50 52 113 65 140 12
28 38 84 58 125 20 41 36 78 36 81 1 3 11 25 22 50 12 24 30 61 39 83 9 21 20
34 24 30 4 -5 22 -43 41 -84z"/>
<path d="M5999 7602 c-1 -4 0 -11 1 -17 5 -26 5 -75 -1 -75 -4 0 -3 -16 1 -35
5 -21 4 -35 -2 -35 -5 0 -6 -5 -3 -11 10 -16 12 -79 2 -79 -4 0 -5 -5 -2 -11
4 -5 6 -34 5 -62 0 -29 -1 -56 -1 -62 0 -16 0 -147 0 -175 0 -14 1 -58 1 -97
1 -40 -1 -77 -5 -83 -3 -5 -1 -10 5 -10 6 0 9 -4 6 -9 -4 -5 -6 -42 -6 -83 1
-40 0 -82 0 -93 -2 -26 -1 -33 2 -77 2 -21 0 -38 -3 -38 -4 0 -3 -16 1 -35 5
-21 4 -35 -2 -35 -5 0 -6 -5 -3 -11 9 -14 12 -79 4 -79 -4 0 -3 -16 1 -35 5
-21 4 -35 -2 -35 -5 0 -6 -5 -3 -11 9 -14 12 -79 4 -79 -4 0 -3 -16 1 -35 5
-21 4 -35 -2 -35 -5 0 -6 -5 -3 -11 10 -16 12 -79 2 -79 -4 0 -5 -5 -2 -11 4
-5 6 -34 5 -62 0 -29 -1 -56 -1 -62 0 -16 0 -147 0 -175 0 -14 1 -58 1 -97 1
-40 -1 -77 -5 -83 -3 -5 -1 -10 5 -10 6 0 9 -4 6 -9 -4 -5 -6 -42 -6 -83 1
-40 0 -82 0 -93 -2 -26 -1 -33 2 -77 2 -21 0 -38 -3 -38 -4 0 -3 -16 1 -35 5
-21 4 -35 -2 -35 -5 0 -6 -5 -3 -11 9 -14 12 -79 4 -79 -4 0 -4 -15 0 -32 3
-18 5 -49 3 -68 -2 -19 -3 -44 -3 -55 0 -11 1 -53 1 -92 1 -40 -1 -77 -5 -83
-3 -5 -3 -10 2 -10 4 0 7 -26 5 -57 -2 -32 -3 -67 -3 -78 0 -11 1 -53 1 -92 1
-40 -1 -77 -5 -83 -3 -5 -2 -10 4 -10 6 0 6 -11 1 -29 -4 -16 -6 -32 -3 -35 8
-7 9 -76 2 -76 -4 0 -3 -16 1 -35 5 -21 4 -35 -2 -35 -5 0 -6 -5 -3 -11 10
-16 12 -79 2 -79 -4 0 -5 -5 -2 -11 4 -5 6 -34 5 -62 0 -29 -1 -56 -1 -62 0
-16 0 -147 0 -175 0 -14 1 -58 1 -97 1 -40 -1 -77 -5 -83 -3 -5 -1 -10 5 -10
6 0 9 -4 6 -9 -4 -5 -6 -42 -6 -83 1 -40 0 -82 0 -93 -2 -26 -1 -33 2 -77 2
-21 0 -38 -3 -38 -4 0 -3 -16 1 -35 5 -21 4 -35 -2 -35 -5 0 -6 -5 -3 -11 9
-14 12 -79 4 -79 -4 0 -4 -15 0 -32 3 -18 5 -49 3 -68 -2 -19 -3 -44 -3 -55 0
-11 1 -53 1 -92 1 -40 -1 -77 -5 -83 -3 -5 -3 -10 2 -10 4 0 7 -26 5 -57 -2
-32 -3 -67 -3 -78 0 -11 1 -53 1 -92 1 -40 -1 -77 -5 -83 -3 -5 -3 -10 2 -10
4 0 7 -20 5 -45 l-4 -45 2081 0 2082 0 -33 44 c-18 25 -80 111 -138 193 -57
81 -108 150 -112 151 -5 2 -8 8 -8 13 0 6 -5 15 -11 22 -5 7 -73 100 -149 207
-77 107 -143 200 -148 205 -9 11 -92 129 -107 153 -5 9 -14 21 -20 28 -5 6
-111 154 -235 328 -124 174 -271 380 -328 459 -56 78 -108 151 -116 162 -135
190 -186 262 -194 270 -5 6 -24 33 -43 60 -105 153 -234 330 -241 333 -4 2 -8
8 -8 13 0 6 -5 15 -10 22 -6 7 -32 41 -58 77 -26 36 -50 67 -54 68 -5 2 -8 8
-8 13 0 5 -29 49 -65 98 -36 48 -65 91 -65 95 0 3 482 488 1070 1076 589 588
1070 1072 1070 1075 0 8 -4150 4 -4151 -3z m1902 -2462 c40 -58 77 -106 81
-108 5 -2 8 -8 8 -13 0 -8 75 -115 110 -156 5 -7 10 -17 10 -23 0 -5 3 -10 8
-10 4 0 18 -18 32 -40 14 -22 28 -40 32 -40 5 0 8 -5 8 -10 0 -6 5 -16 10 -23
6 -7 45 -59 86 -117 41 -58 81 -113 89 -123 8 -9 15 -19 15 -22 0 -5 159 -225
185 -258 8 -9 15 -20 15 -23 0 -2 5 -10 10 -17 11 -12 62 -83 132 -182 81
-115 150 -211 164 -228 7 -9 14 -21 14 -26 0 -5 4 -11 8 -13 4 -1 66 -86 137
-187 72 -100 135 -188 140 -195 6 -6 30 -40 55 -76 24 -36 48 -66 52 -68 4 -2
8 -10 8 -17 0 -7 4 -15 8 -17 4 -1 28 -32 52 -68 25 -35 51 -71 57 -80 7 -8
51 -69 97 -135 47 -66 90 -125 95 -132 6 -7 7 -14 3 -16 -4 -2 -758 -3 -1677
-3 l-1670 1 0 505 0 505 768 768 c423 423 772 765 776 761 4 -5 41 -56 82
-114z"/>
</g>
</svg>
